<mxfile host="Electron" modified="2024-04-07T20:06:32.898Z" agent="Mozilla/5.0 (Macintosh; Intel Mac OS X 10_15_7) AppleWebKit/537.36 (KHTML, like Gecko) draw.io/24.1.0 Chrome/120.0.6099.109 Electron/28.1.0 Safari/537.36" etag="_6ilUjFFUhjGXHNZp4vw" version="24.1.0" type="device" pages="2">
  <diagram name="Page-1" id="i2pQ6GXTeyNQiyUow3Wy">
    <mxGraphModel dx="2074" dy="1267" grid="0" gridSize="10" guides="1" tooltips="1" connect="1" arrows="1" fold="1" page="1" pageScale="1" pageWidth="850" pageHeight="1100" math="1" shadow="0">
      <root>
        <mxCell id="0" />
        <mxCell id="1" parent="0" />
        <mxCell id="w-SaohoOVKlUtVYiUDNf-91" value="" style="rounded=0;whiteSpace=wrap;html=1;" parent="1" vertex="1">
          <mxGeometry x="146" y="407" width="488" height="249" as="geometry" />
        </mxCell>
        <mxCell id="w-SaohoOVKlUtVYiUDNf-2" value="" style="ellipse;whiteSpace=wrap;html=1;aspect=fixed;" parent="1" vertex="1">
          <mxGeometry x="93.5" y="148" width="61" height="61" as="geometry" />
        </mxCell>
        <mxCell id="w-SaohoOVKlUtVYiUDNf-3" value="&lt;font style=&quot;font-size: 14px;&quot;&gt;0&lt;/font&gt;" style="ellipse;whiteSpace=wrap;html=1;aspect=fixed;" parent="1" vertex="1">
          <mxGeometry x="93.5" y="218" width="61" height="61" as="geometry" />
        </mxCell>
        <mxCell id="w-SaohoOVKlUtVYiUDNf-6" value="7keV" style="ellipse;whiteSpace=wrap;html=1;aspect=fixed;" parent="1" vertex="1">
          <mxGeometry x="252" y="181" width="63" height="63" as="geometry" />
        </mxCell>
        <mxCell id="w-SaohoOVKlUtVYiUDNf-7" value="8keV" style="ellipse;whiteSpace=wrap;html=1;aspect=fixed;" parent="1" vertex="1">
          <mxGeometry x="255" y="259" width="57" height="57" as="geometry" />
        </mxCell>
        <mxCell id="w-SaohoOVKlUtVYiUDNf-8" value="6keV" style="ellipse;whiteSpace=wrap;html=1;aspect=fixed;" parent="1" vertex="1">
          <mxGeometry x="251" y="105" width="64" height="64" as="geometry" />
        </mxCell>
        <mxCell id="w-SaohoOVKlUtVYiUDNf-12" value="" style="endArrow=classic;html=1;rounded=0;exitX=1;exitY=0.5;exitDx=0;exitDy=0;" parent="1" source="w-SaohoOVKlUtVYiUDNf-2" edge="1">
          <mxGeometry width="50" height="50" relative="1" as="geometry">
            <mxPoint x="160" y="172" as="sourcePoint" />
            <mxPoint x="250" y="136" as="targetPoint" />
          </mxGeometry>
        </mxCell>
        <mxCell id="w-SaohoOVKlUtVYiUDNf-13" value="" style="endArrow=classic;html=1;rounded=0;entryX=0;entryY=0.5;entryDx=0;entryDy=0;exitX=1;exitY=0.5;exitDx=0;exitDy=0;" parent="1" source="w-SaohoOVKlUtVYiUDNf-2" target="w-SaohoOVKlUtVYiUDNf-6" edge="1">
          <mxGeometry width="50" height="50" relative="1" as="geometry">
            <mxPoint x="170" y="182" as="sourcePoint" />
            <mxPoint x="260" y="146" as="targetPoint" />
          </mxGeometry>
        </mxCell>
        <mxCell id="w-SaohoOVKlUtVYiUDNf-14" value="" style="endArrow=classic;html=1;rounded=0;entryX=0;entryY=0.5;entryDx=0;entryDy=0;exitX=1;exitY=0.5;exitDx=0;exitDy=0;" parent="1" source="w-SaohoOVKlUtVYiUDNf-2" target="w-SaohoOVKlUtVYiUDNf-7" edge="1">
          <mxGeometry width="50" height="50" relative="1" as="geometry">
            <mxPoint x="174" y="191" as="sourcePoint" />
            <mxPoint x="262" y="215" as="targetPoint" />
          </mxGeometry>
        </mxCell>
        <mxCell id="w-SaohoOVKlUtVYiUDNf-15" value="" style="endArrow=classic;html=1;rounded=0;exitX=1;exitY=0.5;exitDx=0;exitDy=0;entryX=0;entryY=0.5;entryDx=0;entryDy=0;" parent="1" source="w-SaohoOVKlUtVYiUDNf-3" target="w-SaohoOVKlUtVYiUDNf-8" edge="1">
          <mxGeometry width="50" height="50" relative="1" as="geometry">
            <mxPoint x="165" y="189" as="sourcePoint" />
            <mxPoint x="260" y="146" as="targetPoint" />
          </mxGeometry>
        </mxCell>
        <mxCell id="w-SaohoOVKlUtVYiUDNf-22" value="" style="endArrow=classic;html=1;rounded=0;entryX=0;entryY=0.5;entryDx=0;entryDy=0;exitX=1;exitY=0.5;exitDx=0;exitDy=0;" parent="1" source="w-SaohoOVKlUtVYiUDNf-3" target="w-SaohoOVKlUtVYiUDNf-7" edge="1">
          <mxGeometry width="50" height="50" relative="1" as="geometry">
            <mxPoint x="164.5" y="276" as="sourcePoint" />
            <mxPoint x="262" y="223" as="targetPoint" />
          </mxGeometry>
        </mxCell>
        <mxCell id="w-SaohoOVKlUtVYiUDNf-23" value="" style="endArrow=classic;html=1;rounded=0;entryX=0;entryY=0.5;entryDx=0;entryDy=0;exitX=1;exitY=0.5;exitDx=0;exitDy=0;" parent="1" source="w-SaohoOVKlUtVYiUDNf-3" target="w-SaohoOVKlUtVYiUDNf-6" edge="1">
          <mxGeometry width="50" height="50" relative="1" as="geometry">
            <mxPoint x="154.5" y="256" as="sourcePoint" />
            <mxPoint x="254.5" y="281" as="targetPoint" />
          </mxGeometry>
        </mxCell>
        <mxCell id="w-SaohoOVKlUtVYiUDNf-25" value="0.25m" style="ellipse;whiteSpace=wrap;html=1;aspect=fixed;" parent="1" vertex="1">
          <mxGeometry x="392" y="183" width="63" height="63" as="geometry" />
        </mxCell>
        <mxCell id="w-SaohoOVKlUtVYiUDNf-26" value="0.35m" style="ellipse;whiteSpace=wrap;html=1;aspect=fixed;" parent="1" vertex="1">
          <mxGeometry x="395" y="261" width="57" height="57" as="geometry" />
        </mxCell>
        <mxCell id="w-SaohoOVKlUtVYiUDNf-27" value="0.15m" style="ellipse;whiteSpace=wrap;html=1;aspect=fixed;" parent="1" vertex="1">
          <mxGeometry x="391" y="107" width="64" height="64" as="geometry" />
        </mxCell>
        <mxCell id="w-SaohoOVKlUtVYiUDNf-28" value="" style="endArrow=classic;html=1;rounded=0;exitX=1;exitY=0.5;exitDx=0;exitDy=0;entryX=0;entryY=0.5;entryDx=0;entryDy=0;" parent="1" source="w-SaohoOVKlUtVYiUDNf-8" target="w-SaohoOVKlUtVYiUDNf-27" edge="1">
          <mxGeometry width="50" height="50" relative="1" as="geometry">
            <mxPoint x="330" y="128" as="sourcePoint" />
            <mxPoint x="380" y="78" as="targetPoint" />
          </mxGeometry>
        </mxCell>
        <mxCell id="w-SaohoOVKlUtVYiUDNf-29" value="" style="endArrow=classic;html=1;rounded=0;exitX=1;exitY=0.5;exitDx=0;exitDy=0;entryX=0;entryY=0.5;entryDx=0;entryDy=0;" parent="1" source="w-SaohoOVKlUtVYiUDNf-8" target="w-SaohoOVKlUtVYiUDNf-25" edge="1">
          <mxGeometry width="50" height="50" relative="1" as="geometry">
            <mxPoint x="325" y="147" as="sourcePoint" />
            <mxPoint x="401" y="149" as="targetPoint" />
          </mxGeometry>
        </mxCell>
        <mxCell id="w-SaohoOVKlUtVYiUDNf-30" value="" style="endArrow=classic;html=1;rounded=0;exitX=1;exitY=0.5;exitDx=0;exitDy=0;entryX=0;entryY=0.5;entryDx=0;entryDy=0;" parent="1" source="w-SaohoOVKlUtVYiUDNf-8" target="w-SaohoOVKlUtVYiUDNf-26" edge="1">
          <mxGeometry width="50" height="50" relative="1" as="geometry">
            <mxPoint x="312" y="144" as="sourcePoint" />
            <mxPoint x="389" y="222" as="targetPoint" />
          </mxGeometry>
        </mxCell>
        <mxCell id="w-SaohoOVKlUtVYiUDNf-31" value="" style="endArrow=classic;html=1;rounded=0;entryX=0;entryY=0.5;entryDx=0;entryDy=0;exitX=1;exitY=0.5;exitDx=0;exitDy=0;" parent="1" source="w-SaohoOVKlUtVYiUDNf-6" target="w-SaohoOVKlUtVYiUDNf-27" edge="1">
          <mxGeometry width="50" height="50" relative="1" as="geometry">
            <mxPoint x="316" y="209" as="sourcePoint" />
            <mxPoint x="401" y="149" as="targetPoint" />
          </mxGeometry>
        </mxCell>
        <mxCell id="w-SaohoOVKlUtVYiUDNf-32" value="" style="endArrow=classic;html=1;rounded=0;exitX=1;exitY=0.5;exitDx=0;exitDy=0;entryX=0;entryY=0.5;entryDx=0;entryDy=0;" parent="1" source="w-SaohoOVKlUtVYiUDNf-6" target="w-SaohoOVKlUtVYiUDNf-25" edge="1">
          <mxGeometry width="50" height="50" relative="1" as="geometry">
            <mxPoint x="325" y="147" as="sourcePoint" />
            <mxPoint x="402" y="225" as="targetPoint" />
          </mxGeometry>
        </mxCell>
        <mxCell id="w-SaohoOVKlUtVYiUDNf-33" value="" style="endArrow=classic;html=1;rounded=0;exitX=1;exitY=0.5;exitDx=0;exitDy=0;entryX=0;entryY=0.5;entryDx=0;entryDy=0;" parent="1" source="w-SaohoOVKlUtVYiUDNf-6" target="w-SaohoOVKlUtVYiUDNf-26" edge="1">
          <mxGeometry width="50" height="50" relative="1" as="geometry">
            <mxPoint x="325" y="147" as="sourcePoint" />
            <mxPoint x="405" y="300" as="targetPoint" />
          </mxGeometry>
        </mxCell>
        <mxCell id="w-SaohoOVKlUtVYiUDNf-34" value="" style="endArrow=classic;html=1;rounded=0;entryX=0;entryY=0.5;entryDx=0;entryDy=0;exitX=1;exitY=0.5;exitDx=0;exitDy=0;" parent="1" source="w-SaohoOVKlUtVYiUDNf-7" target="w-SaohoOVKlUtVYiUDNf-27" edge="1">
          <mxGeometry width="50" height="50" relative="1" as="geometry">
            <mxPoint x="325" y="223" as="sourcePoint" />
            <mxPoint x="411" y="159" as="targetPoint" />
          </mxGeometry>
        </mxCell>
        <mxCell id="w-SaohoOVKlUtVYiUDNf-35" value="" style="endArrow=classic;html=1;rounded=0;exitX=1;exitY=0.5;exitDx=0;exitDy=0;entryX=0;entryY=0.5;entryDx=0;entryDy=0;" parent="1" source="w-SaohoOVKlUtVYiUDNf-7" target="w-SaohoOVKlUtVYiUDNf-25" edge="1">
          <mxGeometry width="50" height="50" relative="1" as="geometry">
            <mxPoint x="325" y="223" as="sourcePoint" />
            <mxPoint x="412" y="235" as="targetPoint" />
          </mxGeometry>
        </mxCell>
        <mxCell id="w-SaohoOVKlUtVYiUDNf-36" value="" style="endArrow=classic;html=1;rounded=0;exitX=1;exitY=0.5;exitDx=0;exitDy=0;entryX=0;entryY=0.5;entryDx=0;entryDy=0;" parent="1" source="w-SaohoOVKlUtVYiUDNf-7" target="w-SaohoOVKlUtVYiUDNf-26" edge="1">
          <mxGeometry width="50" height="50" relative="1" as="geometry">
            <mxPoint x="325" y="223" as="sourcePoint" />
            <mxPoint x="415" y="310" as="targetPoint" />
          </mxGeometry>
        </mxCell>
        <mxCell id="w-SaohoOVKlUtVYiUDNf-41" value="" style="ellipse;whiteSpace=wrap;html=1;aspect=fixed;" parent="1" vertex="1">
          <mxGeometry x="531.5" y="175" width="61" height="61" as="geometry" />
        </mxCell>
        <mxCell id="w-SaohoOVKlUtVYiUDNf-43" value="" style="endArrow=classic;html=1;rounded=0;entryX=0;entryY=0.5;entryDx=0;entryDy=0;exitX=1;exitY=0.5;exitDx=0;exitDy=0;" parent="1" source="w-SaohoOVKlUtVYiUDNf-27" target="w-SaohoOVKlUtVYiUDNf-41" edge="1">
          <mxGeometry width="50" height="50" relative="1" as="geometry">
            <mxPoint x="465" y="149" as="sourcePoint" />
            <mxPoint x="541" y="190" as="targetPoint" />
          </mxGeometry>
        </mxCell>
        <mxCell id="w-SaohoOVKlUtVYiUDNf-45" value="" style="endArrow=classic;html=1;rounded=0;entryX=0;entryY=0.5;entryDx=0;entryDy=0;exitX=1;exitY=0.5;exitDx=0;exitDy=0;" parent="1" source="w-SaohoOVKlUtVYiUDNf-25" target="w-SaohoOVKlUtVYiUDNf-41" edge="1">
          <mxGeometry width="50" height="50" relative="1" as="geometry">
            <mxPoint x="465" y="149" as="sourcePoint" />
            <mxPoint x="541" y="260" as="targetPoint" />
          </mxGeometry>
        </mxCell>
        <mxCell id="w-SaohoOVKlUtVYiUDNf-47" value="" style="endArrow=classic;html=1;rounded=0;entryX=0;entryY=0.5;entryDx=0;entryDy=0;exitX=1;exitY=0.5;exitDx=0;exitDy=0;" parent="1" source="w-SaohoOVKlUtVYiUDNf-26" target="w-SaohoOVKlUtVYiUDNf-41" edge="1">
          <mxGeometry width="50" height="50" relative="1" as="geometry">
            <mxPoint x="465" y="225" as="sourcePoint" />
            <mxPoint x="541" y="260" as="targetPoint" />
          </mxGeometry>
        </mxCell>
        <mxCell id="w-SaohoOVKlUtVYiUDNf-49" value="Peaks Classification" style="text;html=1;align=center;verticalAlign=middle;resizable=0;points=[];autosize=1;strokeColor=none;fillColor=none;" parent="1" vertex="1">
          <mxGeometry x="62" y="67" width="125" height="26" as="geometry" />
        </mxCell>
        <mxCell id="w-SaohoOVKlUtVYiUDNf-50" value="Photon Energy" style="text;html=1;align=center;verticalAlign=middle;resizable=0;points=[];autosize=1;strokeColor=none;fillColor=none;" parent="1" vertex="1">
          <mxGeometry x="232" y="67" width="97" height="26" as="geometry" />
        </mxCell>
        <mxCell id="w-SaohoOVKlUtVYiUDNf-51" value="Camera Length" style="text;html=1;align=center;verticalAlign=middle;resizable=0;points=[];autosize=1;strokeColor=none;fillColor=none;" parent="1" vertex="1">
          <mxGeometry x="373" y="67" width="101" height="26" as="geometry" />
        </mxCell>
        <mxCell id="w-SaohoOVKlUtVYiUDNf-52" value="&lt;font style=&quot;font-size: 14px;&quot;&gt;1&lt;/font&gt;" style="text;html=1;align=center;verticalAlign=middle;resizable=0;points=[];autosize=1;strokeColor=none;fillColor=none;" parent="1" vertex="1">
          <mxGeometry x="111.5" y="164.5" width="26" height="29" as="geometry" />
        </mxCell>
        <mxCell id="w-SaohoOVKlUtVYiUDNf-53" value="Output" style="text;html=1;align=center;verticalAlign=middle;resizable=0;points=[];autosize=1;strokeColor=none;fillColor=none;" parent="1" vertex="1">
          <mxGeometry x="535" y="67" width="54" height="26" as="geometry" />
        </mxCell>
        <mxCell id="w-SaohoOVKlUtVYiUDNf-55" value="" style="shape=curlyBracket;whiteSpace=wrap;html=1;rounded=1;labelPosition=left;verticalLabelPosition=middle;align=right;verticalAlign=middle;" parent="1" vertex="1">
          <mxGeometry x="614" y="161.75" width="20" height="87.5" as="geometry" />
        </mxCell>
        <mxCell id="w-SaohoOVKlUtVYiUDNf-56" value="Predictions:" style="text;html=1;align=center;verticalAlign=middle;resizable=0;points=[];autosize=1;strokeColor=none;fillColor=none;" parent="1" vertex="1">
          <mxGeometry x="646.5" y="67" width="81" height="26" as="geometry" />
        </mxCell>
        <mxCell id="w-SaohoOVKlUtVYiUDNf-59" value="peak: 1&lt;div&gt;&lt;br&gt;&lt;/div&gt;&lt;div&gt;photon_energy: 6keV&lt;/div&gt;&lt;div&gt;&lt;br&gt;&lt;/div&gt;&lt;div&gt;clen:0.15m&lt;/div&gt;" style="text;html=1;align=center;verticalAlign=middle;resizable=0;points=[];autosize=1;strokeColor=none;fillColor=none;" parent="1" vertex="1">
          <mxGeometry x="621" y="163.5" width="132" height="84" as="geometry" />
        </mxCell>
        <mxCell id="w-SaohoOVKlUtVYiUDNf-61" value="" style="shape=table;startSize=0;container=1;collapsible=0;childLayout=tableLayout;fontSize=16;" parent="1" vertex="1">
          <mxGeometry x="251" y="469" width="382" height="187" as="geometry" />
        </mxCell>
        <mxCell id="w-SaohoOVKlUtVYiUDNf-62" value="" style="shape=tableRow;horizontal=0;startSize=0;swimlaneHead=0;swimlaneBody=0;strokeColor=inherit;top=0;left=0;bottom=0;right=0;collapsible=0;dropTarget=0;fillColor=none;points=[[0,0.5],[1,0.5]];portConstraint=eastwest;fontSize=16;" parent="w-SaohoOVKlUtVYiUDNf-61" vertex="1">
          <mxGeometry width="382" height="62" as="geometry" />
        </mxCell>
        <mxCell id="w-SaohoOVKlUtVYiUDNf-63" value="&quot;01&quot; = (0.15, 6)" style="shape=partialRectangle;html=1;whiteSpace=wrap;connectable=0;strokeColor=inherit;overflow=hidden;fillColor=none;top=0;left=0;bottom=0;right=0;pointerEvents=1;fontSize=16;" parent="w-SaohoOVKlUtVYiUDNf-62" vertex="1">
          <mxGeometry width="127" height="62" as="geometry">
            <mxRectangle width="127" height="62" as="alternateBounds" />
          </mxGeometry>
        </mxCell>
        <mxCell id="w-SaohoOVKlUtVYiUDNf-64" value="&quot;02&quot; = (0.15, 7)" style="shape=partialRectangle;html=1;whiteSpace=wrap;connectable=0;strokeColor=inherit;overflow=hidden;fillColor=none;top=0;left=0;bottom=0;right=0;pointerEvents=1;fontSize=16;" parent="w-SaohoOVKlUtVYiUDNf-62" vertex="1">
          <mxGeometry x="127" width="128" height="62" as="geometry">
            <mxRectangle width="128" height="62" as="alternateBounds" />
          </mxGeometry>
        </mxCell>
        <mxCell id="w-SaohoOVKlUtVYiUDNf-65" value="&quot;03&quot; = (0.15, 8)" style="shape=partialRectangle;html=1;whiteSpace=wrap;connectable=0;strokeColor=inherit;overflow=hidden;fillColor=none;top=0;left=0;bottom=0;right=0;pointerEvents=1;fontSize=16;" parent="w-SaohoOVKlUtVYiUDNf-62" vertex="1">
          <mxGeometry x="255" width="127" height="62" as="geometry">
            <mxRectangle width="127" height="62" as="alternateBounds" />
          </mxGeometry>
        </mxCell>
        <mxCell id="w-SaohoOVKlUtVYiUDNf-66" value="" style="shape=tableRow;horizontal=0;startSize=0;swimlaneHead=0;swimlaneBody=0;strokeColor=inherit;top=0;left=0;bottom=0;right=0;collapsible=0;dropTarget=0;fillColor=none;points=[[0,0.5],[1,0.5]];portConstraint=eastwest;fontSize=16;" parent="w-SaohoOVKlUtVYiUDNf-61" vertex="1">
          <mxGeometry y="62" width="382" height="59" as="geometry" />
        </mxCell>
        <mxCell id="w-SaohoOVKlUtVYiUDNf-67" value="&quot;04&quot; = (0.25, 6)" style="shape=partialRectangle;html=1;whiteSpace=wrap;connectable=0;strokeColor=inherit;overflow=hidden;fillColor=none;top=0;left=0;bottom=0;right=0;pointerEvents=1;fontSize=16;" parent="w-SaohoOVKlUtVYiUDNf-66" vertex="1">
          <mxGeometry width="127" height="59" as="geometry">
            <mxRectangle width="127" height="59" as="alternateBounds" />
          </mxGeometry>
        </mxCell>
        <mxCell id="w-SaohoOVKlUtVYiUDNf-68" value="&quot;05&quot; = (0.25, 7)" style="shape=partialRectangle;html=1;whiteSpace=wrap;connectable=0;strokeColor=inherit;overflow=hidden;fillColor=none;top=0;left=0;bottom=0;right=0;pointerEvents=1;fontSize=16;" parent="w-SaohoOVKlUtVYiUDNf-66" vertex="1">
          <mxGeometry x="127" width="128" height="59" as="geometry">
            <mxRectangle width="128" height="59" as="alternateBounds" />
          </mxGeometry>
        </mxCell>
        <mxCell id="w-SaohoOVKlUtVYiUDNf-69" value="&quot;06&quot; = (0.25, 8)" style="shape=partialRectangle;html=1;whiteSpace=wrap;connectable=0;strokeColor=inherit;overflow=hidden;fillColor=none;top=0;left=0;bottom=0;right=0;pointerEvents=1;fontSize=16;" parent="w-SaohoOVKlUtVYiUDNf-66" vertex="1">
          <mxGeometry x="255" width="127" height="59" as="geometry">
            <mxRectangle width="127" height="59" as="alternateBounds" />
          </mxGeometry>
        </mxCell>
        <mxCell id="w-SaohoOVKlUtVYiUDNf-70" value="" style="shape=tableRow;horizontal=0;startSize=0;swimlaneHead=0;swimlaneBody=0;strokeColor=inherit;top=0;left=0;bottom=0;right=0;collapsible=0;dropTarget=0;fillColor=none;points=[[0,0.5],[1,0.5]];portConstraint=eastwest;fontSize=16;" parent="w-SaohoOVKlUtVYiUDNf-61" vertex="1">
          <mxGeometry y="121" width="382" height="66" as="geometry" />
        </mxCell>
        <mxCell id="w-SaohoOVKlUtVYiUDNf-71" value="&quot;07&quot; = (0.35, 6)" style="shape=partialRectangle;html=1;whiteSpace=wrap;connectable=0;strokeColor=inherit;overflow=hidden;fillColor=none;top=0;left=0;bottom=0;right=0;pointerEvents=1;fontSize=16;" parent="w-SaohoOVKlUtVYiUDNf-70" vertex="1">
          <mxGeometry width="127" height="66" as="geometry">
            <mxRectangle width="127" height="66" as="alternateBounds" />
          </mxGeometry>
        </mxCell>
        <mxCell id="w-SaohoOVKlUtVYiUDNf-72" value="&quot;08&quot; = (0.35, 7)" style="shape=partialRectangle;html=1;whiteSpace=wrap;connectable=0;strokeColor=inherit;overflow=hidden;fillColor=none;top=0;left=0;bottom=0;right=0;pointerEvents=1;fontSize=16;" parent="w-SaohoOVKlUtVYiUDNf-70" vertex="1">
          <mxGeometry x="127" width="128" height="66" as="geometry">
            <mxRectangle width="128" height="66" as="alternateBounds" />
          </mxGeometry>
        </mxCell>
        <mxCell id="w-SaohoOVKlUtVYiUDNf-73" value="&quot;09&quot; = (0.35, 8)" style="shape=partialRectangle;html=1;whiteSpace=wrap;connectable=0;strokeColor=inherit;overflow=hidden;fillColor=none;top=0;left=0;bottom=0;right=0;pointerEvents=1;fontSize=16;" parent="w-SaohoOVKlUtVYiUDNf-70" vertex="1">
          <mxGeometry x="255" width="127" height="66" as="geometry">
            <mxRectangle width="127" height="66" as="alternateBounds" />
          </mxGeometry>
        </mxCell>
        <mxCell id="w-SaohoOVKlUtVYiUDNf-74" value="&lt;font style=&quot;font-size: 14px;&quot;&gt;Camera Length (m)&amp;nbsp;&lt;/font&gt;&lt;div&gt;&lt;font style=&quot;font-size: 14px;&quot;&gt;(&quot;clen&quot;)&lt;/font&gt;&lt;/div&gt;" style="text;html=1;align=center;verticalAlign=middle;resizable=0;points=[];autosize=1;strokeColor=none;fillColor=none;rotation=-90;" parent="1" vertex="1">
          <mxGeometry x="99" y="539.5" width="143" height="46" as="geometry" />
        </mxCell>
        <mxCell id="w-SaohoOVKlUtVYiUDNf-75" value="&lt;font style=&quot;font-size: 14px;&quot;&gt;Photon Energy (keV)&amp;nbsp;&lt;span style=&quot;background-color: initial;&quot;&gt;(&quot;photon_energy&quot;)&lt;/span&gt;&lt;/font&gt;" style="text;html=1;align=center;verticalAlign=middle;resizable=0;points=[];autosize=1;strokeColor=none;fillColor=none;rotation=0;" parent="1" vertex="1">
          <mxGeometry x="242" y="409" width="265" height="29" as="geometry" />
        </mxCell>
        <mxCell id="w-SaohoOVKlUtVYiUDNf-78" value="&lt;font style=&quot;font-size: 14px;&quot;&gt;Dataset Layout&lt;/font&gt;" style="text;strokeColor=none;fillColor=none;html=1;fontSize=24;fontStyle=1;verticalAlign=middle;align=center;" parent="1" vertex="1">
          <mxGeometry x="361" y="333" width="100" height="76" as="geometry" />
        </mxCell>
        <mxCell id="w-SaohoOVKlUtVYiUDNf-79" value="&lt;span style=&quot;color: rgb(0, 0, 0); font-family: Helvetica; font-style: normal; font-variant-ligatures: normal; font-variant-caps: normal; font-weight: 700; letter-spacing: normal; orphans: 2; text-align: center; text-indent: 0px; text-transform: none; widows: 2; word-spacing: 0px; -webkit-text-stroke-width: 0px; white-space: nowrap; background-color: rgb(251, 251, 251); text-decoration-thickness: initial; text-decoration-style: initial; text-decoration-color: initial; float: none; display: inline !important;&quot;&gt;&lt;font style=&quot;font-size: 14px;&quot;&gt;Model Pipeline&lt;/font&gt;&lt;/span&gt;" style="text;whiteSpace=wrap;html=1;" parent="1" vertex="1">
          <mxGeometry x="312" y="29" width="104" height="27" as="geometry" />
        </mxCell>
        <mxCell id="w-SaohoOVKlUtVYiUDNf-82" value="Example:" style="text;html=1;align=center;verticalAlign=middle;resizable=0;points=[];autosize=1;strokeColor=none;fillColor=none;" parent="1" vertex="1">
          <mxGeometry x="619" y="122" width="68" height="26" as="geometry" />
        </mxCell>
        <mxCell id="w-SaohoOVKlUtVYiUDNf-83" value="&lt;font style=&quot;font-size: 14px;&quot;&gt;clen01&lt;/font&gt;" style="text;html=1;align=center;verticalAlign=middle;resizable=0;points=[];autosize=1;strokeColor=none;fillColor=none;" parent="1" vertex="1">
          <mxGeometry x="193" y="487" width="59" height="29" as="geometry" />
        </mxCell>
        <mxCell id="w-SaohoOVKlUtVYiUDNf-84" value="&lt;font style=&quot;font-size: 14px;&quot;&gt;clen02&lt;/font&gt;" style="text;html=1;align=center;verticalAlign=middle;resizable=0;points=[];autosize=1;strokeColor=none;fillColor=none;" parent="1" vertex="1">
          <mxGeometry x="192" y="544" width="59" height="29" as="geometry" />
        </mxCell>
        <mxCell id="w-SaohoOVKlUtVYiUDNf-85" value="&lt;span style=&quot;color: rgb(0, 0, 0); font-family: Helvetica; font-size: 12px; font-style: normal; font-variant-ligatures: normal; font-variant-caps: normal; font-weight: 400; letter-spacing: normal; orphans: 2; text-align: center; text-indent: 0px; text-transform: none; widows: 2; word-spacing: 0px; -webkit-text-stroke-width: 0px; white-space: nowrap; background-color: rgb(251, 251, 251); text-decoration-thickness: initial; text-decoration-style: initial; text-decoration-color: initial; display: inline !important; float: none;&quot;&gt;photon_energy01&lt;/span&gt;" style="text;whiteSpace=wrap;html=1;" parent="1" vertex="1">
          <mxGeometry x="261" y="442.5" width="108" height="36" as="geometry" />
        </mxCell>
        <mxCell id="w-SaohoOVKlUtVYiUDNf-86" value="&lt;span style=&quot;color: rgb(0, 0, 0); font-family: Helvetica; font-size: 12px; font-style: normal; font-variant-ligatures: normal; font-variant-caps: normal; font-weight: 400; letter-spacing: normal; orphans: 2; text-align: center; text-indent: 0px; text-transform: none; widows: 2; word-spacing: 0px; -webkit-text-stroke-width: 0px; white-space: nowrap; background-color: rgb(251, 251, 251); text-decoration-thickness: initial; text-decoration-style: initial; text-decoration-color: initial; display: inline !important; float: none;&quot;&gt;photon_energy03&lt;/span&gt;" style="text;whiteSpace=wrap;html=1;" parent="1" vertex="1">
          <mxGeometry x="391" y="442.5" width="121" height="36" as="geometry" />
        </mxCell>
        <mxCell id="w-SaohoOVKlUtVYiUDNf-87" value="&lt;span style=&quot;color: rgb(0, 0, 0); font-family: Helvetica; font-size: 12px; font-style: normal; font-variant-ligatures: normal; font-variant-caps: normal; font-weight: 400; letter-spacing: normal; orphans: 2; text-align: center; text-indent: 0px; text-transform: none; widows: 2; word-spacing: 0px; -webkit-text-stroke-width: 0px; white-space: nowrap; background-color: rgb(251, 251, 251); text-decoration-thickness: initial; text-decoration-style: initial; text-decoration-color: initial; display: inline !important; float: none;&quot;&gt;photon_energy03&lt;/span&gt;" style="text;whiteSpace=wrap;html=1;" parent="1" vertex="1">
          <mxGeometry x="515" y="442.5" width="121" height="36" as="geometry" />
        </mxCell>
        <mxCell id="w-SaohoOVKlUtVYiUDNf-88" value="&lt;span style=&quot;color: rgb(0, 0, 0); font-family: Helvetica; font-size: 14px; font-style: normal; font-variant-ligatures: normal; font-variant-caps: normal; font-weight: 400; letter-spacing: normal; orphans: 2; text-align: center; text-indent: 0px; text-transform: none; widows: 2; word-spacing: 0px; -webkit-text-stroke-width: 0px; white-space: nowrap; background-color: rgb(251, 251, 251); text-decoration-thickness: initial; text-decoration-style: initial; text-decoration-color: initial; display: inline !important; float: none;&quot;&gt;clen03&lt;/span&gt;" style="text;whiteSpace=wrap;html=1;" parent="1" vertex="1">
          <mxGeometry x="200" y="609" width="69" height="39" as="geometry" />
        </mxCell>
        <mxCell id="w-SaohoOVKlUtVYiUDNf-95" value="" style="endArrow=none;dashed=1;html=1;dashPattern=1 3;strokeWidth=2;rounded=0;exitX=-0.003;exitY=0.048;exitDx=0;exitDy=0;exitPerimeter=0;entryX=0;entryY=0;entryDx=0;entryDy=0;" parent="1" source="w-SaohoOVKlUtVYiUDNf-62" target="w-SaohoOVKlUtVYiUDNf-91" edge="1">
          <mxGeometry width="50" height="50" relative="1" as="geometry">
            <mxPoint x="431" y="596" as="sourcePoint" />
            <mxPoint x="481" y="546" as="targetPoint" />
          </mxGeometry>
        </mxCell>
      </root>
    </mxGraphModel>
  </diagram>
  <diagram id="OuLxEPMOtrQA7Ulqnweg" name="Page-2">
    <mxGraphModel dx="1120" dy="1214" grid="0" gridSize="10" guides="1" tooltips="1" connect="1" arrows="1" fold="1" page="1" pageScale="1" pageWidth="850" pageHeight="1100" math="1" shadow="0">
      <root>
        <mxCell id="0" />
        <mxCell id="1" parent="0" />
        <mxCell id="gWeLvDqkCD7oVaaT0KPx-47" value="&lt;span style=&quot;font-size: 12px; text-align: left; text-wrap: nowrap;&quot;&gt;Process&lt;/span&gt;" style="swimlane;childLayout=stackLayout;horizontal=1;startSize=50;horizontalStack=0;rounded=1;fontSize=14;fontStyle=0;strokeWidth=2;resizeParent=0;resizeLast=1;shadow=0;dashed=0;align=center;arcSize=4;whiteSpace=wrap;html=1;" vertex="1" parent="1">
          <mxGeometry x="575" y="309" width="196" height="384" as="geometry" />
        </mxCell>
        <mxCell id="gWeLvDqkCD7oVaaT0KPx-48" value="" style="endArrow=none;html=1;rounded=0;exitX=0.005;exitY=0.56;exitDx=0;exitDy=0;exitPerimeter=0;entryX=0.995;entryY=0.56;entryDx=0;entryDy=0;entryPerimeter=0;" edge="1" parent="gWeLvDqkCD7oVaaT0KPx-47">
          <mxGeometry width="50" height="50" relative="1" as="geometry">
            <mxPoint x="1.0499999999999545" y="139" as="sourcePoint" />
            <mxPoint x="208.95000000000005" y="139" as="targetPoint" />
          </mxGeometry>
        </mxCell>
        <mxCell id="gWeLvDqkCD7oVaaT0KPx-49" value="" style="endArrow=none;html=1;rounded=0;exitX=0.005;exitY=0.56;exitDx=0;exitDy=0;exitPerimeter=0;entryX=0.995;entryY=0.56;entryDx=0;entryDy=0;entryPerimeter=0;" edge="1" parent="gWeLvDqkCD7oVaaT0KPx-47">
          <mxGeometry width="50" height="50" relative="1" as="geometry">
            <mxPoint x="1.0499999999999545" y="156" as="sourcePoint" />
            <mxPoint x="208.95000000000005" y="156" as="targetPoint" />
          </mxGeometry>
        </mxCell>
        <mxCell id="gWeLvDqkCD7oVaaT0KPx-50" value="&lt;div&gt;&lt;b&gt;Attributes&lt;/b&gt;&lt;/div&gt;+Paths&lt;div&gt;+threshold&lt;/div&gt;&lt;div&gt;+datset_dict&lt;/div&gt;&lt;div&gt;+parameters_dict&lt;/div&gt;&lt;div&gt;&lt;br&gt;&lt;/div&gt;&lt;div&gt;&lt;b style=&quot;background-color: initial;&quot;&gt;Functions&lt;/b&gt;&lt;br&gt;&lt;/div&gt;&lt;div&gt;init_water_background()&lt;/div&gt;&lt;div&gt;select_datasets()&lt;/div&gt;&lt;div&gt;new_attribute()&lt;/div&gt;&lt;div&gt;update_attribute()&lt;/div&gt;&lt;div&gt;apply_water_background()&lt;/div&gt;&lt;div&gt;heatmap()&lt;/div&gt;&lt;div&gt;heatmap_tensor()&lt;/div&gt;&lt;div&gt;confirm_value()&lt;/div&gt;&lt;div&gt;confirm_action()&lt;/div&gt;&lt;div&gt;process_directory()&lt;/div&gt;&lt;div&gt;process_single_dataset()&lt;/div&gt;&lt;div&gt;cleanup()&lt;/div&gt;&lt;div&gt;cleanup_authenticator()&lt;/div&gt;&lt;div&gt;process_empty()&lt;/div&gt;&lt;div&gt;process_empty_single_dataset()&lt;/div&gt;&lt;div&gt;&lt;br&gt;&lt;/div&gt;&lt;div&gt;&lt;br&gt;&lt;/div&gt;" style="align=left;strokeColor=none;fillColor=none;spacingLeft=4;fontSize=12;verticalAlign=top;resizable=0;rotatable=0;part=1;html=1;" vertex="1" parent="gWeLvDqkCD7oVaaT0KPx-47">
          <mxGeometry y="50" width="196" height="334" as="geometry" />
        </mxCell>
        <mxCell id="gWeLvDqkCD7oVaaT0KPx-51" value="" style="endArrow=none;html=1;rounded=0;" edge="1" parent="gWeLvDqkCD7oVaaT0KPx-47" target="gWeLvDqkCD7oVaaT0KPx-50">
          <mxGeometry width="50" height="50" relative="1" as="geometry">
            <mxPoint y="157" as="sourcePoint" />
            <mxPoint x="129" y="157" as="targetPoint" />
          </mxGeometry>
        </mxCell>
        <mxCell id="gWeLvDqkCD7oVaaT0KPx-6" value="&lt;span style=&quot;font-size: 12px; text-align: left; text-wrap: nowrap;&quot;&gt;PathManager&lt;/span&gt;" style="swimlane;childLayout=stackLayout;horizontal=1;startSize=50;horizontalStack=0;rounded=1;fontSize=14;fontStyle=0;strokeWidth=2;resizeParent=0;resizeLast=1;shadow=0;dashed=0;align=center;arcSize=4;whiteSpace=wrap;html=1;" vertex="1" parent="1">
          <mxGeometry x="60" y="307" width="210" height="241" as="geometry" />
        </mxCell>
        <mxCell id="gWeLvDqkCD7oVaaT0KPx-7" value="&lt;div&gt;&lt;b&gt;Attributes&lt;/b&gt;&lt;/div&gt;+images_dir&lt;div&gt;+peaks_dir&lt;/div&gt;&lt;div&gt;+labels_dir&lt;/div&gt;&lt;div&gt;+peaks_water_overlay&lt;/div&gt;&lt;div&gt;+water_background_dir&lt;/div&gt;&lt;div&gt;+total_paths&lt;/div&gt;&lt;div&gt;&lt;b&gt;&lt;br&gt;&lt;/b&gt;&lt;/div&gt;&lt;div&gt;&lt;b&gt;Functions&lt;/b&gt;&lt;/div&gt;&lt;div&gt;select_datasets()&lt;/div&gt;&lt;div&gt;init_lists()&lt;/div&gt;&lt;div&gt;fetch_paths_by_type()&lt;/div&gt;&lt;div&gt;&lt;br&gt;&lt;/div&gt;&lt;div&gt;&lt;b&gt;&lt;br&gt;&lt;/b&gt;&lt;/div&gt;" style="align=left;strokeColor=none;fillColor=none;spacingLeft=4;fontSize=12;verticalAlign=top;resizable=0;rotatable=0;part=1;html=1;" vertex="1" parent="gWeLvDqkCD7oVaaT0KPx-6">
          <mxGeometry y="50" width="210" height="191" as="geometry" />
        </mxCell>
        <mxCell id="gWeLvDqkCD7oVaaT0KPx-28" value="" style="endArrow=none;html=1;rounded=0;" edge="1" parent="gWeLvDqkCD7oVaaT0KPx-6" target="gWeLvDqkCD7oVaaT0KPx-7">
          <mxGeometry width="50" height="50" relative="1" as="geometry">
            <mxPoint y="157" as="sourcePoint" />
            <mxPoint x="129" y="157" as="targetPoint" />
          </mxGeometry>
        </mxCell>
        <mxCell id="gWeLvDqkCD7oVaaT0KPx-31" value="" style="endArrow=none;html=1;rounded=0;exitX=0.005;exitY=0.56;exitDx=0;exitDy=0;exitPerimeter=0;entryX=0.995;entryY=0.56;entryDx=0;entryDy=0;entryPerimeter=0;" edge="1" parent="gWeLvDqkCD7oVaaT0KPx-6">
          <mxGeometry width="50" height="50" relative="1" as="geometry">
            <mxPoint x="-4.551914400963142e-14" y="184.00000000000003" as="sourcePoint" />
            <mxPoint x="207.90000000000003" y="184.00000000000003" as="targetPoint" />
          </mxGeometry>
        </mxCell>
        <mxCell id="gWeLvDqkCD7oVaaT0KPx-40" value="" style="endArrow=none;html=1;rounded=0;exitX=0.005;exitY=0.56;exitDx=0;exitDy=0;exitPerimeter=0;entryX=0.995;entryY=0.56;entryDx=0;entryDy=0;entryPerimeter=0;" edge="1" parent="gWeLvDqkCD7oVaaT0KPx-6">
          <mxGeometry width="50" height="50" relative="1" as="geometry">
            <mxPoint x="-4.551914400963142e-14" y="167" as="sourcePoint" />
            <mxPoint x="207.90000000000003" y="167" as="targetPoint" />
          </mxGeometry>
        </mxCell>
        <mxCell id="gWeLvDqkCD7oVaaT0KPx-8" value="pkg/" style="swimlane;childLayout=stackLayout;horizontal=1;startSize=50;horizontalStack=0;rounded=1;fontSize=14;fontStyle=0;strokeWidth=2;resizeParent=0;resizeLast=1;shadow=0;dashed=0;align=center;arcSize=4;whiteSpace=wrap;html=1;" vertex="1" parent="1">
          <mxGeometry x="358" y="50" width="154" height="176" as="geometry" />
        </mxCell>
        <mxCell id="gWeLvDqkCD7oVaaT0KPx-9" value="&lt;div&gt;__init__.py&lt;/div&gt;path.py&lt;div&gt;data.py&lt;/div&gt;&lt;div&gt;process.py&lt;/div&gt;&lt;div&gt;functions.py&lt;/div&gt;&lt;div&gt;pipe.py&lt;/div&gt;&lt;div&gt;train_eval.py&lt;/div&gt;&lt;div&gt;transform.py&lt;/div&gt;" style="align=left;strokeColor=none;fillColor=none;spacingLeft=4;fontSize=12;verticalAlign=top;resizable=0;rotatable=0;part=1;html=1;" vertex="1" parent="gWeLvDqkCD7oVaaT0KPx-8">
          <mxGeometry y="50" width="154" height="126" as="geometry" />
        </mxCell>
        <mxCell id="gWeLvDqkCD7oVaaT0KPx-22" style="edgeStyle=orthogonalEdgeStyle;rounded=0;orthogonalLoop=1;jettySize=auto;html=1;exitX=0.5;exitY=1;exitDx=0;exitDy=0;" edge="1" parent="1" source="gWeLvDqkCD7oVaaT0KPx-9" target="gWeLvDqkCD7oVaaT0KPx-6">
          <mxGeometry relative="1" as="geometry" />
        </mxCell>
        <mxCell id="gWeLvDqkCD7oVaaT0KPx-24" style="edgeStyle=orthogonalEdgeStyle;rounded=0;orthogonalLoop=1;jettySize=auto;html=1;exitX=0.5;exitY=1;exitDx=0;exitDy=0;entryX=0.5;entryY=0;entryDx=0;entryDy=0;" edge="1" parent="1" source="gWeLvDqkCD7oVaaT0KPx-9" target="gWeLvDqkCD7oVaaT0KPx-47">
          <mxGeometry relative="1" as="geometry">
            <mxPoint x="659" y="310" as="targetPoint" />
          </mxGeometry>
        </mxCell>
        <mxCell id="gWeLvDqkCD7oVaaT0KPx-33" value="&lt;span style=&quot;font-size: 12px; text-align: left; text-wrap: nowrap;&quot;&gt;DatasetManager&lt;/span&gt;" style="swimlane;childLayout=stackLayout;horizontal=1;startSize=50;horizontalStack=0;rounded=1;fontSize=14;fontStyle=0;strokeWidth=2;resizeParent=0;resizeLast=1;shadow=0;dashed=0;align=center;arcSize=4;whiteSpace=wrap;html=1;" vertex="1" parent="1">
          <mxGeometry x="330" y="309" width="210" height="241" as="geometry" />
        </mxCell>
        <mxCell id="gWeLvDqkCD7oVaaT0KPx-42" value="" style="endArrow=none;html=1;rounded=0;exitX=0.005;exitY=0.56;exitDx=0;exitDy=0;exitPerimeter=0;entryX=0.995;entryY=0.56;entryDx=0;entryDy=0;entryPerimeter=0;" edge="1" parent="gWeLvDqkCD7oVaaT0KPx-33">
          <mxGeometry width="50" height="50" relative="1" as="geometry">
            <mxPoint x="1.0499999999999545" y="139" as="sourcePoint" />
            <mxPoint x="208.95000000000005" y="139" as="targetPoint" />
          </mxGeometry>
        </mxCell>
        <mxCell id="gWeLvDqkCD7oVaaT0KPx-41" value="" style="endArrow=none;html=1;rounded=0;exitX=0.005;exitY=0.56;exitDx=0;exitDy=0;exitPerimeter=0;entryX=0.995;entryY=0.56;entryDx=0;entryDy=0;entryPerimeter=0;" edge="1" parent="gWeLvDqkCD7oVaaT0KPx-33">
          <mxGeometry width="50" height="50" relative="1" as="geometry">
            <mxPoint x="1.0499999999999545" y="156" as="sourcePoint" />
            <mxPoint x="208.95000000000005" y="156" as="targetPoint" />
          </mxGeometry>
        </mxCell>
        <mxCell id="gWeLvDqkCD7oVaaT0KPx-35" value="&lt;div&gt;&lt;b&gt;Attributes&lt;/b&gt;&lt;/div&gt;+Paths&lt;div&gt;+datasets&lt;/div&gt;&lt;div&gt;+parameters&lt;/div&gt;&lt;div&gt;+transform&lt;/div&gt;&lt;div&gt;&lt;br&gt;&lt;/div&gt;&lt;div&gt;&lt;b&gt;Functions&lt;/b&gt;&lt;/div&gt;&lt;div&gt;setup_datasets()&lt;/div&gt;&lt;div&gt;__len__()&lt;/div&gt;&lt;div&gt;__getitem__()&lt;/div&gt;&lt;div&gt;authenticate_attributes()&lt;/div&gt;&lt;div&gt;count_empty_images()&lt;/div&gt;&lt;div&gt;&lt;br&gt;&lt;/div&gt;&lt;div&gt;&lt;br&gt;&lt;/div&gt;" style="align=left;strokeColor=none;fillColor=none;spacingLeft=4;fontSize=12;verticalAlign=top;resizable=0;rotatable=0;part=1;html=1;" vertex="1" parent="gWeLvDqkCD7oVaaT0KPx-33">
          <mxGeometry y="50" width="210" height="191" as="geometry" />
        </mxCell>
        <mxCell id="gWeLvDqkCD7oVaaT0KPx-36" value="" style="endArrow=none;html=1;rounded=0;" edge="1" parent="gWeLvDqkCD7oVaaT0KPx-33" target="gWeLvDqkCD7oVaaT0KPx-35">
          <mxGeometry width="50" height="50" relative="1" as="geometry">
            <mxPoint y="157" as="sourcePoint" />
            <mxPoint x="129" y="157" as="targetPoint" />
          </mxGeometry>
        </mxCell>
        <mxCell id="gWeLvDqkCD7oVaaT0KPx-39" style="edgeStyle=orthogonalEdgeStyle;rounded=0;orthogonalLoop=1;jettySize=auto;html=1;entryX=0;entryY=0.25;entryDx=0;entryDy=0;" edge="1" parent="1" source="gWeLvDqkCD7oVaaT0KPx-7" target="gWeLvDqkCD7oVaaT0KPx-35">
          <mxGeometry relative="1" as="geometry" />
        </mxCell>
        <mxCell id="gWeLvDqkCD7oVaaT0KPx-52" style="edgeStyle=orthogonalEdgeStyle;rounded=0;orthogonalLoop=1;jettySize=auto;html=1;exitX=0.5;exitY=1;exitDx=0;exitDy=0;entryX=0.5;entryY=0;entryDx=0;entryDy=0;" edge="1" parent="1" source="gWeLvDqkCD7oVaaT0KPx-9" target="gWeLvDqkCD7oVaaT0KPx-33">
          <mxGeometry relative="1" as="geometry" />
        </mxCell>
        <mxCell id="gWeLvDqkCD7oVaaT0KPx-53" style="edgeStyle=orthogonalEdgeStyle;rounded=0;orthogonalLoop=1;jettySize=auto;html=1;exitX=1;exitY=0.5;exitDx=0;exitDy=0;entryX=0.5;entryY=1;entryDx=0;entryDy=0;" edge="1" parent="1" source="gWeLvDqkCD7oVaaT0KPx-7" target="gWeLvDqkCD7oVaaT0KPx-47">
          <mxGeometry relative="1" as="geometry">
            <Array as="points">
              <mxPoint x="300" y="453" />
              <mxPoint x="300" y="753" />
              <mxPoint x="674" y="753" />
            </Array>
          </mxGeometry>
        </mxCell>
      </root>
    </mxGraphModel>
  </diagram>
</mxfile>
